<svg width="28" height="28" viewBox="0 0 28 28" fill="none" xmlns="http://www.w3.org/2000/svg">
<rect width="28" height="28" rx="10" fill="#252525"/>
<path d="M19.0648 10.0071C17.1142 6.9999 13.1316 6.10586 10.0431 7.97521C7.03593 9.84456 6.06062 13.9084 8.01125 16.9156L8.1738 17.1594L7.52359 19.5977L9.96187 18.9475L10.2057 19.11C11.2623 19.679 12.4002 20.0041 13.538 20.0041C14.7572 20.0041 15.9763 19.679 17.0329 19.0288C20.0401 17.0781 20.9341 13.0956 19.0648 10.0071ZM17.358 16.2654C17.0329 16.753 16.6265 17.0781 16.0576 17.1594C15.7325 17.1594 15.3261 17.322 13.7006 16.6717C12.3189 16.0215 11.181 14.965 10.3683 13.7458C9.8806 13.1769 9.63677 12.4454 9.55549 11.7139C9.55549 11.0637 9.79932 10.4948 10.2057 10.0884C10.3683 9.92584 10.5308 9.84456 10.6934 9.84456H11.0997C11.2623 9.84456 11.4248 9.84456 11.5061 10.1697C11.6687 10.576 12.075 11.5514 12.075 11.6326C12.1563 11.7139 12.1563 11.8765 12.075 11.9577C12.1563 12.1203 12.075 12.2828 11.9938 12.3641C11.9125 12.4454 11.8312 12.6079 11.7499 12.6892C11.5874 12.7705 11.5061 12.9331 11.5874 13.0956C11.9125 13.5833 12.3189 14.0709 12.7253 14.4773C13.2129 14.8837 13.7006 15.2088 14.2695 15.4526C14.4321 15.5339 14.5946 15.5339 14.6759 15.3713C14.7572 15.2088 15.1635 14.8024 15.3261 14.6398C15.4886 14.4773 15.5699 14.4773 15.7325 14.5586L17.0329 15.2088C17.1954 15.2901 17.358 15.3713 17.4393 15.4526C17.5205 15.6964 17.5205 16.0215 17.358 16.2654Z" fill="white"/>
</svg>
