<svg width="28" height="28" viewBox="0 0 28 28" fill="none" xmlns="http://www.w3.org/2000/svg">
<rect width="28" height="28" rx="10" fill="#252525"/>
<path d="M10.9102 20.0005H8.21497V11.3208H10.9102V20.0005ZM9.56098 10.1368C8.69924 10.1368 8 9.42273 8 8.56098C8 8.14699 8.16446 7.74994 8.4572 7.4572C8.74994 7.16446 9.14699 7 9.56098 7C9.97498 7 10.372 7.16446 10.6648 7.4572C10.9575 7.74994 11.122 8.14699 11.122 8.56098C11.122 9.42273 10.4227 10.1368 9.56098 10.1368ZM20.9977 20.0005H18.3084V15.7753C18.3084 14.7682 18.288 13.477 16.9072 13.477C15.5059 13.477 15.2909 14.5709 15.2909 15.7029V20.0005H12.5985V11.3208H15.1832V12.5048H15.2208C15.5807 11.8227 16.4596 11.103 17.7708 11.103C20.4986 11.103 21 12.8994 21 15.2325V20.0005H20.9977Z" fill="white"/>
</svg>
