<svg width="50" height="50" viewBox="0 0 50 50" fill="none" xmlns="http://www.w3.org/2000/svg">
<circle cx="25" cy="25" r="25" fill="#626262"/>
<path d="M25.5 14C27.025 14 28.4875 14.6058 29.5659 15.6841C30.6442 16.7625 31.25 18.225 31.25 19.75C31.25 21.275 30.6442 22.7375 29.5659 23.8159C28.4875 24.8942 27.025 25.5 25.5 25.5C23.975 25.5 22.5125 24.8942 21.4341 23.8159C20.3558 22.7375 19.75 21.275 19.75 19.75C19.75 18.225 20.3558 16.7625 21.4341 15.6841C22.5125 14.6058 23.975 14 25.5 14ZM25.5 28.375C31.8538 28.375 37 30.9481 37 34.125V37H14V34.125C14 30.9481 19.1462 28.375 25.5 28.375Z" fill="white"/>
</svg>
