<svg width="35" height="35" viewBox="0 0 35 35" fill="none" xmlns="http://www.w3.org/2000/svg">
<path d="M0 10C0 4.47715 4.47715 0 10 0H25C30.5228 0 35 4.47715 35 10V25C35 30.5228 30.5228 35 25 35H10C4.47715 35 0 30.5228 0 25V10Z" fill="#252525"/>
<path d="M30.5442 9.46321C29.6049 9.87946 28.5958 10.1607 27.5349 10.2878C28.6295 9.63285 29.4484 8.60198 29.8389 7.38758C28.8105 7.99845 27.6849 8.42843 26.5111 8.65883C25.7218 7.81606 24.6763 7.25745 23.537 7.06974C22.3977 6.88203 21.2282 7.07572 20.2103 7.62074C19.1923 8.16576 18.3827 9.03162 17.9073 10.0839C17.4318 11.1361 17.3171 12.3159 17.5809 13.4401C15.497 13.3355 13.4585 12.7938 11.5975 11.8504C9.7365 10.9069 8.0947 9.58264 6.77862 7.96358C6.32862 8.73983 6.06988 9.63983 6.06988 10.5983C6.06937 11.4612 6.28186 12.3109 6.68849 13.0719C7.09512 13.833 7.68331 14.4819 8.40088 14.9611C7.56869 14.9346 6.75486 14.7097 6.02713 14.3052V14.3727C6.02704 15.5829 6.44566 16.7559 7.21196 17.6926C7.97825 18.6293 9.04502 19.272 10.2313 19.5117C9.45926 19.7206 8.64988 19.7514 7.86425 19.6017C8.19893 20.643 8.85087 21.5536 9.72879 22.206C10.6067 22.8584 11.6667 23.2199 12.7603 23.24C10.9038 24.6973 8.61112 25.4878 6.251 25.4843C5.83293 25.4844 5.41521 25.46 5 25.4112C7.39566 26.9515 10.1844 27.769 13.0325 27.7658C22.6737 27.7658 27.9444 19.7806 27.9444 12.8551C27.9444 12.6301 27.9388 12.4028 27.9286 12.1778C28.9538 11.4364 29.8388 10.5183 30.542 9.46658L30.5442 9.46321V9.46321Z" fill="white"/>
</svg>
