<svg width="35" height="35" viewBox="0 0 35 35" fill="none" xmlns="http://www.w3.org/2000/svg">
<path d="M0 10C0 4.47715 4.47715 0 10 0H25C30.5228 0 35 4.47715 35 10V25C35 30.5228 30.5228 35 25 35H10C4.47715 35 0 30.5228 0 25V10Z" fill="#252525"/>
<path d="M13.8292 28V18.6154H10V15.2365H13.8292V12.3505C13.8292 10.0826 16.091 8 21.3029 8C23.4131 8 24.9736 8.1311 24.9736 8.1311L24.8506 11.2864C24.8506 11.2864 23.2592 11.2764 21.5227 11.2764C19.6432 11.2764 19.3421 11.8377 19.3421 12.7693V15.2365H25L24.7538 18.6154H19.3421V28H13.8292Z" fill="#F8F8F8"/>
</svg>
