<svg width="35" height="35" viewBox="0 0 35 35" fill="none" xmlns="http://www.w3.org/2000/svg">
<path d="M0 10C0 4.47715 4.47715 0 10 0H25C30.5228 0 35 4.47715 35 10V25C35 30.5228 30.5228 35 25 35H10C4.47715 35 0 30.5228 0 25V10Z" fill="#252525"/>
<path d="M11.4773 27.0007H7.33073V13.6474H11.4773V27.0007ZM9.40151 11.8259C8.07575 11.8259 7 10.7273 7 9.40151C7 8.76459 7.25302 8.15376 7.70339 7.70339C8.15376 7.25302 8.76459 7 9.40151 7C10.0384 7 10.6493 7.25302 11.0996 7.70339C11.55 8.15376 11.803 8.76459 11.803 9.40151C11.803 10.7273 10.7273 11.8259 9.40151 11.8259ZM26.9964 27.0007H22.8591V20.5005C22.8591 18.9511 22.8277 16.9646 20.7033 16.9646C18.5476 16.9646 18.2168 18.6476 18.2168 20.389V27.0007H14.0745V13.6474H18.0511V15.4689H18.109C18.6626 14.4195 20.0148 13.3124 22.032 13.3124C26.2285 13.3124 27 16.076 27 19.6655V27.0007H26.9964Z" fill="white"/>
</svg>
