<svg width="35" height="35" viewBox="0 0 35 35" fill="none" xmlns="http://www.w3.org/2000/svg">
<path d="M35 17.5C35 27.165 27.165 35 17.5 35C7.83502 35 0 27.165 0 17.5C0 7.83502 7.83502 0 17.5 0C27.165 0 35 7.83502 35 17.5Z" fill="#252525"/>
<path d="M16.9998 7.33325C14.9233 7.33499 12.9318 8.15838 11.4604 9.62358C9.9889 11.0888 9.15705 13.0767 9.14648 15.1533C9.14648 18.2666 10.8932 20.8733 12.1732 22.7733L12.4065 23.1199C13.68 24.9657 15.0462 26.7457 16.4998 28.4533L17.0065 29.0466L17.5132 28.4533C18.9666 26.7456 20.3328 24.9655 21.6065 23.1199L21.8398 22.7666C23.1132 20.8666 24.8598 18.2666 24.8598 15.1533C24.8492 13.0756 24.0165 11.0866 22.5436 9.62123C21.0707 8.15584 19.0775 7.33323 16.9998 7.33325V7.33325ZM16.9998 18.6666C16.1349 18.6666 15.2893 18.4101 14.5701 17.9295C13.8509 17.449 13.2904 16.766 12.9594 15.9669C12.6284 15.1677 12.5418 14.2884 12.7105 13.4401C12.8793 12.5917 13.2958 11.8125 13.9074 11.2008C14.519 10.5892 15.2983 10.1727 16.1466 10.004C16.995 9.83521 17.8743 9.92181 18.6734 10.2528C19.4725 10.5838 20.1556 11.1444 20.6361 11.8636C21.1167 12.5827 21.3732 13.4283 21.3732 14.2933C21.3732 15.4531 20.9124 16.5655 20.0922 17.3857C19.2721 18.2058 18.1597 18.6666 16.9998 18.6666V18.6666Z" fill="white"/>
<path d="M16.9999 16.78C18.3732 16.78 19.4865 15.6667 19.4865 14.2933C19.4865 12.92 18.3732 11.8066 16.9999 11.8066C15.6265 11.8066 14.5132 12.92 14.5132 14.2933C14.5132 15.6667 15.6265 16.78 16.9999 16.78Z" fill="white"/>
</svg>
