<svg width="35" height="35" viewBox="0 0 35 35" fill="none" xmlns="http://www.w3.org/2000/svg">
<path d="M0 10C0 4.47715 4.47715 0 10 0H25C30.5228 0 35 4.47715 35 10V25C35 30.5228 30.5228 35 25 35H10C4.47715 35 0 30.5228 0 25V10Z" fill="#252525"/>
<path d="M23.8442 13.6999C21.4442 9.99988 16.5442 8.89988 12.7442 11.1999C9.04421 13.4999 7.84421 18.4999 10.2442 22.1999L10.4442 22.4999L9.64421 25.4999L12.6442 24.6999L12.9442 24.8999C14.2442 25.5999 15.6442 25.9999 17.0442 25.9999C18.5442 25.9999 20.0442 25.5999 21.3442 24.7999C25.0442 22.3999 26.1442 17.4999 23.8442 13.6999V13.6999ZM21.7442 21.3999C21.3442 21.9999 20.8442 22.3999 20.1442 22.4999C19.7442 22.4999 19.2442 22.6999 17.2442 21.8999C15.5442 21.0999 14.1442 19.7999 13.1442 18.2999C12.5442 17.5999 12.2442 16.6999 12.1442 15.7999C12.1442 14.9999 12.4442 14.2999 12.9442 13.7999C13.1442 13.5999 13.3442 13.4999 13.5442 13.4999H14.0442C14.2442 13.4999 14.4442 13.4999 14.5442 13.8999C14.7442 14.3999 15.2442 15.5999 15.2442 15.6999C15.3442 15.7999 15.3442 15.9999 15.2442 16.0999C15.3442 16.2999 15.2442 16.4999 15.1442 16.5999C15.0442 16.6999 14.9442 16.8999 14.8442 16.9999C14.6442 17.0999 14.5442 17.2999 14.6442 17.4999C15.0442 18.0999 15.5442 18.6999 16.0442 19.1999C16.6442 19.6999 17.2442 20.0999 17.9442 20.3999C18.1442 20.4999 18.3442 20.4999 18.4442 20.2999C18.5442 20.0999 19.0442 19.5999 19.2442 19.3999C19.4442 19.1999 19.5442 19.1999 19.7442 19.2999L21.3442 20.0999C21.5442 20.1999 21.7442 20.2999 21.8442 20.3999C21.9442 20.6999 21.9442 21.0999 21.7442 21.3999V21.3999Z" fill="white"/>
</svg>
