<svg width="35" height="35" viewBox="0 0 35 35" fill="none"
    xmlns="http://www.w3.org/2000/svg">
    <path fill-rule="evenodd" clip-rule="evenodd" d="M10.8855 10.5102C11.0604 10.3355 11.2706 10.1999 11.5019 10.1126C11.7332 10.0252 11.9804 9.98798 12.2272 10.0034C12.474 10.0188 12.7147 10.0865 12.9333 10.202C13.152 10.3174 13.3436 10.478 13.4955 10.6732L15.2905 12.9792C15.6195 13.4022 15.7355 13.9532 15.6055 14.4732L15.0585 16.6632C15.0302 16.7766 15.0317 16.8954 15.0629 17.0081C15.0941 17.1207 15.1539 17.2234 15.2365 17.3062L17.6935 19.7632C17.7763 19.8459 17.8792 19.9058 17.992 19.937C18.1049 19.9682 18.2239 19.9696 18.3375 19.9412L20.5265 19.3942C20.7831 19.33 21.0509 19.325 21.3098 19.3796C21.5686 19.4342 21.8116 19.5469 22.0205 19.7092L24.3265 21.5032C25.1555 22.1482 25.2315 23.3732 24.4895 24.1142L23.4555 25.1482C22.7155 25.8882 21.6095 26.2132 20.5785 25.8502C17.9397 24.9217 15.5437 23.411 13.5685 21.4302C11.5878 19.4552 10.0771 17.0596 9.14847 14.4212C8.78647 13.3912 9.11147 12.2842 9.85147 11.5442L10.8855 10.5102Z" fill="white"/>
</svg>
