<svg width="176" height="164" viewBox="0 0 176 164" fill="none" xmlns="http://www.w3.org/2000/svg">
<path d="M50.24 18.896H59.456L52.736 66H43.52L47.616 37.264L35.584 66H26.816L28.096 37.136L17.408 66H12.288L28.544 22.032C25.2587 23.1413 22.7413 24.9333 20.992 27.408C19.2427 29.8827 18.368 32.8907 18.368 36.432C18.368 37.2853 18.4107 38.032 18.496 38.672C18.624 39.2693 18.816 39.824 19.072 40.336C19.1573 40.5067 19.2 40.6347 19.2 40.72C19.2427 40.7627 19.264 40.8053 19.264 40.848C16.96 40.848 15.232 40.3787 14.08 39.44C12.9707 38.4587 12.416 36.9867 12.416 35.024C12.416 32.976 13.0347 30.9067 14.272 28.816C15.552 26.6827 17.3013 24.7413 19.52 22.992C21.5253 21.4133 23.68 20.1973 25.984 19.344C28.288 18.448 30.5493 18 32.768 18C33.5787 18 34.3893 18.0853 35.2 18.256C36.0533 18.384 36.864 18.5973 37.632 18.896L36.16 52.624L50.24 18.896ZM69.063 60.176C70.1297 60.176 71.0897 59.728 71.943 58.832C72.7963 57.936 73.5003 56.6347 74.055 54.928L78.535 34H87.751L81.415 63.696C83.5483 62.928 85.2123 61.8613 86.407 60.496C87.6443 59.088 88.6683 57.104 89.479 54.544H92.167C91.1857 57.7867 89.7777 60.3893 87.943 62.352C86.151 64.3147 83.783 65.7013 80.839 66.512L79.879 71.12C79.111 74.704 77.767 77.4133 75.847 79.248C73.927 81.0827 71.431 82 68.359 82C66.183 82 64.4337 81.4453 63.111 80.336C61.831 79.2267 61.191 77.712 61.191 75.792C61.191 73.7013 62.0443 71.8453 63.751 70.224C65.5003 68.6453 68.1243 67.3227 71.623 66.256L72.391 62.8C71.3243 63.9947 70.151 64.8907 68.871 65.488C67.6337 66.0853 66.247 66.384 64.711 66.384C62.5777 66.384 60.8923 65.7227 59.655 64.4C58.4603 63.0347 57.863 61.136 57.863 58.704C57.863 58.1493 57.9057 57.5307 57.991 56.848C58.0763 56.1227 58.2043 55.3547 58.375 54.544L62.727 34H71.943L67.335 55.76C67.2923 56.016 67.2497 56.2933 67.207 56.592C67.1643 56.848 67.143 57.104 67.143 57.36C67.143 58.256 67.2923 58.96 67.591 59.472C67.9323 59.9413 68.423 60.176 69.063 60.176ZM70.983 69.456C68.8497 70.2667 67.271 71.0987 66.247 71.952C65.223 72.848 64.711 73.8293 64.711 74.896C64.711 75.4507 64.9243 75.9413 65.351 76.368C65.7777 76.7947 66.2897 77.008 66.887 77.008C67.6123 77.008 68.3163 76.496 68.999 75.472C69.6817 74.448 70.215 73.0613 70.599 71.312L70.983 69.456Z" fill="white"/>
<path d="M15.232 126H6.016L14.72 85.296L24.192 84.016L19.648 105.392C22.6347 105.136 25.2373 103.387 27.456 100.144C29.7173 96.9013 30.848 93.4027 30.848 89.648C30.848 86.9173 30.144 84.784 28.736 83.248C27.3707 81.712 25.4293 80.944 22.912 80.944C17.7067 80.944 13.632 82.3307 10.688 85.104C7.78667 87.8347 6.336 91.632 6.336 96.496C6.336 97.3067 6.37867 98.0107 6.464 98.608C6.592 99.2053 6.784 99.7813 7.04 100.336C7.12533 100.507 7.168 100.635 7.168 100.72C7.21067 100.763 7.232 100.805 7.232 100.848C4.84267 100.848 3.09333 100.357 1.984 99.376C0.917333 98.352 0.384 96.7733 0.384 94.64C0.384 92.5067 1.088 90.3733 2.496 88.24C3.94667 86.1067 5.952 84.1867 8.512 82.48C10.688 81.072 13.0133 79.984 15.488 79.216C18.0053 78.4053 20.4587 78 22.848 78C27.5413 78 31.232 79.152 33.92 81.456C36.608 83.76 37.952 86.8107 37.952 90.608C37.952 92.8693 37.44 95.088 36.416 97.264C35.4347 99.44 34.048 101.339 32.256 102.96C30.5493 104.539 28.608 105.733 26.432 106.544C24.256 107.355 21.9307 107.76 19.456 107.76H19.136L15.232 126ZM52.4955 85.488C52.4955 86.896 51.9835 88.0907 50.9595 89.072C49.9782 90.0533 48.7835 90.544 47.3755 90.544C45.9675 90.544 44.7728 90.0533 43.7915 89.072C42.8102 88.0907 42.3195 86.896 42.3195 85.488C42.3195 84.08 42.8102 82.8853 43.7915 81.904C44.7728 80.88 45.9675 80.368 47.3755 80.368C48.7835 80.368 49.9782 80.88 50.9595 81.904C51.9835 82.8853 52.4955 84.08 52.4955 85.488ZM36.1755 118.704C36.1755 118.149 36.2182 117.531 36.3035 116.848C36.3888 116.123 36.5168 115.355 36.6875 114.544L41.0395 94H50.2555L45.6475 115.76C45.5622 116.144 45.4982 116.507 45.4555 116.848C45.4128 117.147 45.3915 117.467 45.3915 117.808C45.3915 118.661 45.5835 119.28 45.9675 119.664C46.3942 120.005 47.0768 120.176 48.0155 120.176C49.2102 120.176 50.3408 119.664 51.4075 118.64C52.4742 117.573 53.2635 116.208 53.7755 114.544H56.4635C55.0982 118.427 53.2635 121.371 50.9595 123.376C48.6555 125.381 46.0102 126.384 43.0235 126.384C40.8902 126.384 39.2048 125.723 37.9675 124.4C36.7728 123.035 36.1755 121.136 36.1755 118.704ZM66.87 121.2C67.8087 121.285 68.5127 121.349 68.982 121.392C69.494 121.435 69.942 121.456 70.326 121.456C71.2647 121.456 71.9687 121.349 72.438 121.136C72.95 120.923 73.2487 120.603 73.334 120.176C72.95 120.133 72.6513 120.005 72.438 119.792C72.2247 119.536 72.118 119.216 72.118 118.832C72.118 118.107 72.4593 117.467 73.142 116.912C73.8247 116.357 74.678 116.08 75.702 116.08C76.598 116.08 77.2807 116.357 77.75 116.912C78.262 117.467 78.518 118.213 78.518 119.152C78.518 120.901 77.75 122.48 76.214 123.888C74.7207 125.296 72.886 126 70.71 126H53.75L70.07 97.456H66.486C65.1633 97.456 64.246 97.5413 63.734 97.712C63.222 97.8827 62.966 98.1387 62.966 98.48C62.966 98.48 63.0727 98.5653 63.286 98.736C63.542 98.9067 63.67 99.2907 63.67 99.888C63.67 100.912 63.3287 101.744 62.646 102.384C62.006 102.981 61.1953 103.28 60.214 103.28C59.3607 103.28 58.6567 103.024 58.102 102.512C57.5473 102 57.27 101.317 57.27 100.464C57.27 98.8853 57.9953 97.4133 59.446 96.048C60.9393 94.6827 62.6887 94 64.694 94H81.142L65.462 121.072C65.59 121.072 65.7393 121.093 65.91 121.136C66.1233 121.136 66.4433 121.157 66.87 121.2ZM94.245 121.2C95.1837 121.285 95.8877 121.349 96.357 121.392C96.869 121.435 97.317 121.456 97.701 121.456C98.6397 121.456 99.3437 121.349 99.813 121.136C100.325 120.923 100.624 120.603 100.709 120.176C100.325 120.133 100.026 120.005 99.813 119.792C99.5997 119.536 99.493 119.216 99.493 118.832C99.493 118.107 99.8343 117.467 100.517 116.912C101.2 116.357 102.053 116.08 103.077 116.08C103.973 116.08 104.656 116.357 105.125 116.912C105.637 117.467 105.893 118.213 105.893 119.152C105.893 120.901 105.125 122.48 103.589 123.888C102.096 125.296 100.261 126 98.085 126H81.125L97.445 97.456H93.861C92.5383 97.456 91.621 97.5413 91.109 97.712C90.597 97.8827 90.341 98.1387 90.341 98.48C90.341 98.48 90.4477 98.5653 90.661 98.736C90.917 98.9067 91.045 99.2907 91.045 99.888C91.045 100.912 90.7037 101.744 90.021 102.384C89.381 102.981 88.5703 103.28 87.589 103.28C86.7357 103.28 86.0317 103.024 85.477 102.512C84.9223 102 84.645 101.317 84.645 100.464C84.645 98.8853 85.3703 97.4133 86.821 96.048C88.3143 94.6827 90.0637 94 92.069 94H108.517L92.837 121.072C92.965 121.072 93.1143 121.093 93.285 121.136C93.4983 121.136 93.8183 121.157 94.245 121.2ZM129.3 96.944V97.392L130.004 94H139.22L134.612 115.76C134.527 116.144 134.463 116.507 134.42 116.848C134.377 117.147 134.356 117.467 134.356 117.808C134.356 118.747 134.569 119.451 134.996 119.92C135.423 120.347 136.084 120.56 136.98 120.56C138.089 120.56 139.092 120.048 139.988 119.024C140.884 117.957 141.609 116.464 142.164 114.544H144.852C143.487 118.469 141.716 121.435 139.54 123.44C137.364 125.403 134.847 126.384 131.988 126.384C130.153 126.384 128.681 125.872 127.572 124.848C126.505 123.824 125.887 122.373 125.716 120.496C124.393 122.459 122.921 123.931 121.3 124.912C119.721 125.893 118.015 126.384 116.18 126.384C113.535 126.384 111.444 125.488 109.908 123.696C108.415 121.904 107.668 119.365 107.668 116.08C107.668 113.691 108.031 111.195 108.756 108.592C109.481 105.989 110.484 103.621 111.764 101.488C113.343 98.9707 115.177 97.0507 117.268 95.728C119.359 94.3627 121.641 93.68 124.116 93.68C125.78 93.68 127.06 93.9787 127.956 94.576C128.852 95.1307 129.3 95.92 129.3 96.944ZM128.724 100.08C128.724 99.44 128.489 98.8853 128.02 98.416C127.551 97.904 126.911 97.648 126.1 97.648C123.753 97.648 121.663 99.6107 119.828 103.536C118.036 107.461 117.14 111.344 117.14 115.184C117.14 116.848 117.375 118.107 117.844 118.96C118.313 119.771 119.145 120.176 120.34 120.176C121.449 120.176 122.516 119.643 123.54 118.576C124.607 117.509 125.311 116.165 125.652 114.544L128.724 100.08Z" fill="white"/>
<g clip-path="url(#clip0_5_94)">
<path d="M152.225 44.9582C147.404 39.1693 141.522 34.6412 134.395 30.8446C127.269 27.048 119.676 24.5365 112.745 23.8566C111.44 23.7232 110.083 23.9721 110.03 25.7327C109.985 27.1626 107.632 64.1282 107.106 77.4803C107.088 77.931 107.197 78.3778 107.421 78.7693C107.646 79.1607 107.976 79.4809 108.374 79.693C108.772 79.9052 109.222 80.0006 109.672 79.9685C110.122 79.9363 110.554 79.7778 110.918 79.5111L152.116 48.2568C153.027 47.5665 153.324 46.2764 152.225 44.9582Z" stroke="white" stroke-width="4.8125" stroke-miterlimit="10"/>
<path d="M159.279 41.8319C153.824 35.4157 146.307 29.0113 137.79 24.4736C129.272 19.9359 119.983 17.1645 111.419 16.2318C110.661 16.155 109.181 16.1214 108.974 17.2807L108.553 21.1666C108.505 22.5378 109.124 22.8681 109.973 23.3199C110.21 23.4465 110.613 23.4906 111.093 23.5454C119.244 24.5202 127.145 26.9949 134.395 30.8446C141.929 34.8583 148.799 40.563 153.457 46.1123C153.835 46.552 154.045 46.7969 154.27 46.9164C155.143 47.3817 155.492 47.9411 156.833 46.902L159.833 44.3968C160.524 43.7426 159.936 42.6078 159.279 41.8319Z" stroke="white" stroke-width="4.8125" stroke-miterlimit="10"/>
<path d="M116.849 43.3082C119.195 44.558 122.11 43.6695 123.36 41.3237C124.609 38.978 123.721 36.0633 121.375 34.8136C119.029 33.5639 116.115 34.4524 114.865 36.7981C113.615 39.1438 114.504 42.0585 116.849 43.3082Z" fill="white"/>
<path d="M132.707 54.4832C135.053 55.7329 137.968 54.8444 139.217 52.4987C140.467 50.153 139.579 47.2383 137.233 45.9886C134.887 44.7388 131.972 45.6273 130.723 47.973C129.473 50.3188 130.362 53.2335 132.707 54.4832Z" fill="white"/>
<path d="M116.293 64.8232C118.638 66.0729 121.553 65.1844 122.803 62.8387C124.053 60.493 123.164 57.5783 120.818 56.3285C118.473 55.0788 115.558 55.9673 114.308 58.313C113.058 60.6588 113.947 63.5735 116.293 64.8232Z" fill="white"/>
</g>
<defs>
<clipPath id="clip0_5_94">
<rect width="77" height="77" fill="white" transform="translate(107.205) rotate(28.0471)"/>
</clipPath>
</defs>
</svg>
